<?xml version="1.0" encoding="iso-8859-1"?>
<!-- Generator: Adobe Illustrator 19.0.0, SVG Export Plug-In . SVG Version: 6.00 Build 0)  -->
<svg xmlns="http://www.w3.org/2000/svg" xmlns:xlink="http://www.w3.org/1999/xlink" version="1.1" id="Capa_1" x="0px" y="0px" viewBox="0 0 512 512" style="enable-background:new 0 0 512 512;" xml:space="preserve" width="512px" height="512px">
<g>
	<g>
		<path d="M502,179.999h-6V76c0-5.523-4.477-10-10-10h-35h-35c-5.523,0-10,4.477-10,10v16.713l-15.293-8.83    c-4.781-2.76-10.898-1.123-13.66,3.66l-45.936,79.563c-1.326,2.297-1.686,5.026-0.999,7.588c0.568,2.121,1.822,3.974,3.538,5.305    H292v-27.941c0-1.382-0.287-2.749-0.842-4.016l-9.521-21.721c-2.821-6.479-7.543-17.323-19.916-17.323H122.28    c-12.373,0-17.095,10.843-19.916,17.322l-9.522,21.722c-0.555,1.266-0.841,2.633-0.841,4.015v27.941H10c-5.523,0-10,4.477-10,10    v32c0,5.523,4.477,10,10,10h5.782l3.816,204.188c0.102,5.45,4.548,9.814,9.999,9.814H54c5.523,0,10-4.477,10-10    c0-0.783-0.099-1.541-0.269-2.272L76.928,232H317v147.999c0,5.523,4.477,10,10,10h3.391l0.863,46.188    c0.102,5.449,4.548,9.813,9.999,9.813h23.748c4.016,0,7.47-2.373,9.06-5.788c0.653-1.219,1.072-2.589,1.167-4.059l3.02-46.154    h56.787l2.985,45.62c-0.005,0.128-0.02,0.253-0.02,0.381c0,5.523,4.477,10,10,10h24.03c5.45,0,9.896-4.364,9.999-9.813    l0.863-46.188H485c5.523,0,10-4.477,10-10V232h7c5.523,0,10-4.477,10-10v-32C512,184.476,507.523,179.999,502,179.999z M461,86h15    v93.999h-15V86z M426,86h15v93.999h-15V86z M389.368,106.204l12.805,7.393l-35.936,62.242l-12.805-7.393L389.368,106.204z     M406,146.967V180h-19.072L406,146.967z M120.701,134.306c0.739-1.697,1.794-4.12,2.583-5.307h137.435    c0.789,1.187,1.844,3.61,2.582,5.308l8.7,19.847v25.845h-160c0,0,0-25.845,0-25.845L120.701,134.306z M44.194,426h-4.783    l-3.625-194h21.1L44.194,426z M355.85,426h-4.782l-0.673-36.001h7.811L355.85,426z M462.215,426h-4.783l-2.355-36.001h7.81    L462.215,426z M475,369.999H337v-59h138V369.999z M475,290.999H337V232h138V290.999z M492,211.999h-7H20v-12h472V211.999z" fill="#1f9cb2"/>
	</g>
</g>
<g>
	<g>
		<path d="M417,250.999h-21c-5.523,0-10,4.477-10,10c0,5.523,4.478,10,10,10h21c5.523,0,10-4.477,10-10    C427,255.476,422.523,250.999,417,250.999z" fill="#1f9cb2"/>
	</g>
</g>
<g>
	<g>
		<path d="M417,329.999h-21c-5.523,0-10,4.477-10,10s4.478,10,10,10h21c5.523,0,10-4.477,10-10S422.523,329.999,417,329.999z" fill="#1f9cb2"/>
	</g>
</g>
<g>
	<g>
		<path d="M227.001,143.999h-41c-5.523,0-10,4.477-10,10c0,5.523,4.477,10,10,10h41c5.523,0,10-4.477,10-10    C237.001,148.476,232.523,143.999,227.001,143.999z" fill="#1f9cb2"/>
	</g>
</g>
<g>
	<g>
		<circle cx="158.5" cy="154" r="10" fill="#1f9cb2"/>
	</g>
</g>
<g>
</g>
<g>
</g>
<g>
</g>
<g>
</g>
<g>
</g>
<g>
</g>
<g>
</g>
<g>
</g>
<g>
</g>
<g>
</g>
<g>
</g>
<g>
</g>
<g>
</g>
<g>
</g>
<g>
</g>
</svg>
