<?xml version="1.0" encoding="iso-8859-1"?>
<!-- Generator: Adobe Illustrator 19.0.0, SVG Export Plug-In . SVG Version: 6.00 Build 0)  -->
<svg xmlns="http://www.w3.org/2000/svg" xmlns:xlink="http://www.w3.org/1999/xlink" version="1.1" id="Layer_1" x="0px" y="0px" viewBox="0 0 511.99 511.99" style="enable-background:new 0 0 511.99 511.99;" xml:space="preserve" width="512px" height="512px">
<g>
	<g>
		<path d="M231.003,131.657c-16.116-16.124-37.546-24.999-60.342-24.999c-22.789,0-44.218,8.875-60.335,24.992    c-16.117,16.117-24.992,37.546-24.992,60.343s8.875,44.226,24.992,60.335c16.117,16.125,37.546,25.008,60.335,25.008    c22.796,0,44.226-8.883,60.342-25.008c16.117-16.118,24.992-37.54,24.992-60.336C255.995,169.196,247.12,147.766,231.003,131.657z     M215.918,237.249c-12.086,12.086-28.164,18.742-45.257,18.742c-13.5,0-26.359-4.156-37.125-11.851    c3.562-4.195,3.375-10.477-0.586-14.438c-3.953-3.953-10.242-4.148-14.437-0.586c-7.695-10.765-11.852-23.625-11.852-37.124    c0-17.093,6.664-33.164,18.75-45.257c12.085-12.086,28.155-18.742,45.249-18.742c13.5,0,26.359,4.156,37.124,11.852    c-3.555,4.195-3.367,10.477,0.586,14.437c3.961,3.953,10.25,4.148,14.438,0.586c7.703,10.766,11.851,23.625,11.851,37.125    C234.66,209.085,228.004,225.156,215.918,237.249z" fill="#FFFFFF"/>
	</g>
</g>
<g>
	<g>
		<path d="M253.628,109.025c-4.164-4.164-10.922-4.164-15.086,0s-4.164,10.922,0,15.086c4.172,4.164,10.922,4.164,15.086,0    S257.792,113.189,253.628,109.025z" fill="#FFFFFF"/>
	</g>
</g>
<g>
	<g>
		<path d="M193.293,169.368c-4.172-4.165-10.922-4.165-15.086,0c-4.164,4.164-4.164,10.914,0,15.085    c4.164,4.164,10.914,4.164,15.086,0C197.457,180.281,197.457,173.532,193.293,169.368z" fill="#FFFFFF"/>
	</g>
</g>
<g>
	<g>
		<path d="M163.122,199.531c-4.164-4.164-10.921-4.164-15.085,0c-4.164,4.171-4.164,10.921,0,15.085    c4.164,4.172,10.921,4.172,15.085,0C167.286,210.452,167.286,203.702,163.122,199.531z" fill="#FFFFFF"/>
	</g>
</g>
<g>
	<g>
		<path d="M102.78,259.874c-4.164-4.165-10.914-4.165-15.078,0c-4.172,4.164-4.172,10.922,0,15.086    c4.164,4.156,10.914,4.156,15.078,0C106.952,270.796,106.952,264.038,102.78,259.874z" fill="#FFFFFF"/>
	</g>
</g>
<g>
	<g>
		<path d="M416.18,149.329H309.525c-5.905,0-10.671,4.773-10.671,10.664s4.766,10.664,10.671,10.664h106.654    c5.891,0,10.672-4.773,10.672-10.664S422.07,149.329,416.18,149.329z" fill="#FFFFFF"/>
	</g>
</g>
<g>
	<g>
		<path d="M415.992,191.992H309.338c-5.905,0-10.687,4.773-10.687,10.664c0,5.89,4.781,10.671,10.687,10.671h106.654    c5.891,0,10.656-4.781,10.656-10.671C426.648,196.766,421.883,191.992,415.992,191.992z" fill="#FFFFFF"/>
	</g>
</g>
<g>
	<g>
		<path d="M362.852,234.655h-53.717c-5.89,0-10.671,4.781-10.671,10.672s4.781,10.664,10.671,10.664h53.718    c5.891,0,10.672-4.773,10.672-10.664C373.525,239.436,368.743,234.655,362.852,234.655z" fill="#FFFFFF"/>
	</g>
</g>
<g>
	<g>
		<path d="M501.335,319.989h-10.688V53.33c0-5.89-4.766-10.671-10.656-10.671H31.999c-5.891,0-10.664,4.781-10.664,10.671v266.659    H10.664C4.773,319.989,0,324.77,0,330.645c0,5.906,4.773,10.688,10.664,10.688h21.335h10.984c-0.703,3.438-1.078,7-1.078,10.656    c0,7.844,1.719,15.281,4.773,22c-15.531,13.688-25.343,33.717-25.343,55.998v28.656c0,5.906,4.773,10.688,10.664,10.688h127.998    c5.891,0,10.664-4.781,10.664-10.688v-28.656c0-22.797-10.273-43.232-26.429-56.936c2.789-6.469,4.344-13.594,4.344-21.062    c0-3.656-0.375-7.219-1.078-10.656h55.483c-0.703,3.438-1.078,7-1.078,10.656c0,7.844,1.718,15.281,4.773,22    c-15.531,13.688-25.343,33.717-25.343,55.998v28.656c0,5.906,4.773,10.688,10.664,10.688h127.998    c5.891,0,10.656-4.781,10.656-10.688v-28.656c0-22.797-10.266-43.232-26.421-56.936c2.796-6.469,4.343-13.594,4.343-21.062    c0-3.656-0.375-7.219-1.078-10.656h55.483c-0.703,3.438-1.078,7-1.078,10.656c0,7.844,1.719,15.281,4.781,22    c-15.531,13.688-25.344,33.717-25.344,55.998v28.656c0,5.906,4.766,10.688,10.656,10.688h127.998    c5.891,0,10.656-4.781,10.656-10.688v-28.656c0-22.797-10.266-43.232-26.422-56.936c2.797-6.469,4.344-13.594,4.344-21.062    c0-3.656-0.375-7.219-1.078-10.656h12.5h21.344c5.875,0,10.655-4.781,10.655-10.688C511.99,324.77,507.21,319.989,501.335,319.989    z M149.333,429.987v18H42.663v-18c0-15.188,6.398-28.904,16.632-38.639c9.484,8.672,22.109,13.984,35.945,13.984    c14.21,0,27.125-5.609,36.694-14.688C142.615,400.395,149.333,414.425,149.333,429.987z M63.241,351.989c0-17.656,14.351-32,32-32    c17.648,0,31.999,14.344,31.999,32c0,17.656-14.351,32-31.999,32C77.593,383.989,63.241,369.645,63.241,351.989z M309.338,429.987    v18H202.661v-18c0-15.188,6.398-28.904,16.632-38.639c9.484,8.672,22.109,13.984,35.944,13.984    c14.211,0,27.133-5.609,36.695-14.688C302.62,400.395,309.338,414.425,309.338,429.987z M223.238,351.989    c0-17.656,14.351-32,31.999-32c17.649,0,32.008,14.344,32.008,32c0,17.656-14.359,32-32.008,32    C237.589,383.989,223.238,369.645,223.238,351.989z M469.335,429.987v18H362.649v-18c0-15.188,6.406-28.904,16.641-38.639    c9.484,8.672,22.109,13.984,35.952,13.984c14.203,0,27.124-5.609,36.687-14.688C462.616,400.395,469.335,414.425,469.335,429.987z     M383.243,351.989c0-17.656,14.344-32,31.999-32c17.64,0,31.999,14.344,31.999,32c0,17.656-14.359,32-31.999,32    C397.587,383.989,383.243,369.645,383.243,351.989z M469.335,319.99h-11.469v-0.001c-9.734-12.938-25.219-21.342-42.624-21.342    c-17.421,0-32.905,8.404-42.655,21.342H297.87c-9.734-12.938-25.219-21.342-42.633-21.342s-32.897,8.404-42.64,21.342H137.88    c-9.742-12.938-25.226-21.342-42.64-21.342s-32.898,8.404-42.64,21.342h-9.937V63.995h426.672V319.99z" fill="#FFFFFF"/>
	</g>
</g>
<g>
</g>
<g>
</g>
<g>
</g>
<g>
</g>
<g>
</g>
<g>
</g>
<g>
</g>
<g>
</g>
<g>
</g>
<g>
</g>
<g>
</g>
<g>
</g>
<g>
</g>
<g>
</g>
<g>
</g>
</svg>
