<?xml version="1.0" ?><svg id="Layer_1" style="enable-background:new 0 0 128 128;" version="1.1" viewBox="0 0 128 128" xml:space="preserve" xmlns="http://www.w3.org/2000/svg" xmlns:xlink="http://www.w3.org/1999/xlink"><style type="text/css">
	.st0{fill:#0A0A0A;}
</style><g id="Layer_1_1_"/><g id="Layer_1_2_"/><path class="st0" d="M115,14H65V2c0-0.6-0.4-1-1-1s-1,0.4-1,1v12H13c-1.7,0-3,1.3-3,3v1c0,1.7,1.3,3,3,3h3v65c0,1.7,1.3,3,3,3h44  v7.6l-28.7,28.7c-0.4,0.4-0.4,1,0,1.4c0.2,0.2,0.5,0.3,0.7,0.3s0.5-0.1,0.7-0.3L63,99.4V126c0,0.6,0.4,1,1,1s1-0.4,1-1V99.4  l27.3,27.3c0.2,0.2,0.5,0.3,0.7,0.3s0.5-0.1,0.7-0.3c0.4-0.4,0.4-1,0-1.4L65,96.6V89h44c1.7,0,3-1.3,3-3V21h3c1.7,0,3-1.3,3-3v-1  C118,15.3,116.7,14,115,14z M110,86c0,0.6-0.4,1-1,1H19c-0.6,0-1-0.4-1-1V21h92V86z M116,18c0,0.6-0.4,1-1,1h-3H16h-3  c-0.6,0-1-0.4-1-1v-1c0-0.6,0.4-1,1-1h102c0.6,0,1,0.4,1,1V18z"/></svg>